<?xml version="1.0" ?><svg data-name="Layer 2" id="Layer_2" viewBox="0 0 2010 2010" xmlns="http://www.w3.org/2000/svg" xmlns:xlink="http://www.w3.org/1999/xlink"><defs><style>.cls-1{fill:url(#linear-gradient);}</style><linearGradient gradientUnits="userSpaceOnUse" id="linear-gradient" x1="-101.58" x2="2041.97" y1="2422.34" y2="-137.13"><stop offset="0.06" stop-color="#ff6800"/><stop offset="1" stop-color="#fff100"/></linearGradient></defs><path class="cls-1" d="M1446.28,1760.21a75,75,0,0,1-35-8.64l-406.85-214.29L597.3,1751a75,75,0,0,1-108.76-79.14l78.07-453.16-329-321.22a75,75,0,0,1,41.66-127.9l455.11-65.78,203.82-412.2a75,75,0,0,1,67.23-41.76h.06a75,75,0,0,1,67.22,41.86l203.2,412.51,455,66.46a75,75,0,0,1,41.47,128l-329.53,320.73,77.39,453.27a75,75,0,0,1-73.93,87.63Z"/></svg>