<svg width="20" height="24" viewBox="0 0 20 24" fill="none" xmlns="http://www.w3.org/2000/svg">
<path d="M14.9902 23.6201H4.99023C4.19458 23.6201 3.43151 23.3041 2.8689 22.7415C2.30629 22.1788 1.99023 21.4158 1.99023 20.6201V3.62012H17.9902V20.6201C17.9902 21.4158 17.6742 22.1788 17.1116 22.7415C16.549 23.3041 15.7859 23.6201 14.9902 23.6201ZM3.99023 5.62012V20.6201C3.99023 20.8853 4.09561 21.1397 4.28314 21.3272C4.47068 21.5147 4.72502 21.6201 4.99023 21.6201H14.9902C15.2555 21.6201 15.5098 21.5147 15.6973 21.3272C15.8849 21.1397 15.9902 20.8853 15.9902 20.6201V5.62012H3.99023Z" fill="#FFFF03"/>
<path d="M20 3.62012H0V5.62012H20V3.62012Z" fill="#FFFF03"/>
<path d="M14.9902 4.62012H12.9902V2.62012H6.99023V4.62012H4.99023V2.62012C4.99023 2.08968 5.20098 1.58097 5.57605 1.2059C5.95112 0.830829 6.4598 0.620117 6.99023 0.620117H12.9902C13.5207 0.620117 14.0293 0.830829 14.4044 1.2059C14.7795 1.58097 14.9902 2.08968 14.9902 2.62012V4.62012Z" fill="#FFFF03"/>
<path d="M11 7.62012H9V19.6201H11V7.62012Z" fill="#FFFF03"/>
<path d="M8 7.62012H6V19.6201H8V7.62012Z" fill="#FFFF03"/>
<path d="M14 7.62012H12V19.6201H14V7.62012Z" fill="#FFFF03"/>
</svg>
